<svg width="40" height="34" viewBox="0 0 40 34" fill="none" xmlns="http://www.w3.org/2000/svg">
<g id="Vector">
<path d="M26.2525 13.7666C22.9929 14.8095 17.5604 16.6868 11.2586 17.1039C9.9548 17.3125 8.86829 15.8524 9.7375 14.6009L17.7777 1.25151C18.8642 -0.41717 21.2545 -0.41717 22.341 1.25151L23.8621 3.75452L27.7736 10.0121C28.4255 11.4722 27.7736 13.1408 26.2525 13.7666Z" fill="#1255E5"/>
<path d="M37.3353 34H2.56688C0.611163 34 -0.692651 31.9142 0.39386 30.2455L4.3053 23.5708C5.39181 21.9021 7.34753 20.8592 9.30326 21.0677C18.43 21.9021 24.0798 20.2334 30.5989 18.7733C31.6854 18.5647 32.7719 18.9819 33.4238 20.0248L39.7256 30.4541C40.5948 31.9142 39.291 34 37.3353 34Z" fill="#1255E5"/>
</g>
</svg>
